<?xml version="1.0" encoding="UTF-8" standalone="no"?>
<!-- Created with Inkscape (http://www.inkscape.org/) -->

<svg
   width="1910"
   height="510"
   viewBox="0 0 1910 510.00002"
   version="1.1"
   id="svg1"
   inkscape:version="1.4 (e7c3feb, 2024-10-09)"
   sodipodi:docname="logo-v002.svg"
   xml:space="preserve"
   inkscape:export-filename="logo-v002.png"
   inkscape:export-xdpi="192"
   inkscape:export-ydpi="192"
   xmlns:inkscape="http://www.inkscape.org/namespaces/inkscape"
   xmlns:sodipodi="http://sodipodi.sourceforge.net/DTD/sodipodi-0.dtd"
   xmlns="http://www.w3.org/2000/svg"
   xmlns:svg="http://www.w3.org/2000/svg"><sodipodi:namedview
     id="namedview1"
     pagecolor="#ffffff"
     bordercolor="#666666"
     borderopacity="1.0"
     inkscape:showpageshadow="2"
     inkscape:pageopacity="0.0"
     inkscape:pagecheckerboard="0"
     inkscape:deskcolor="#d1d1d1"
     inkscape:document-units="px"
     inkscape:zoom="0.88947369"
     inkscape:cx="385.05917"
     inkscape:cy="374.3787"
     inkscape:window-width="2560"
     inkscape:window-height="1371"
     inkscape:window-x="0"
     inkscape:window-y="32"
     inkscape:window-maximized="1"
     inkscape:current-layer="layer1" /><defs
     id="defs1"><inkscape:path-effect
       effect="powerclip"
       message=""
       id="path-effect54"
       is_visible="true"
       lpeversion="1"
       inverse="true"
       flatten="false"
       hide_clip="false" /><inkscape:path-effect
       effect="powerclip"
       message=""
       id="path-effect45"
       is_visible="true"
       lpeversion="1"
       inverse="true"
       flatten="false"
       hide_clip="false" /><inkscape:path-effect
       effect="powerclip"
       message=""
       id="path-effect43"
       is_visible="true"
       lpeversion="1"
       inverse="true"
       flatten="false"
       hide_clip="false" /><inkscape:path-effect
       effect="powerclip"
       message=""
       id="path-effect41"
       is_visible="true"
       lpeversion="1"
       inverse="true"
       flatten="false"
       hide_clip="false" /><inkscape:path-effect
       effect="powerclip"
       message=""
       id="path-effect40"
       is_visible="true"
       lpeversion="1"
       inverse="true"
       flatten="false"
       hide_clip="false" /><inkscape:path-effect
       effect="powerclip"
       message=""
       id="path-effect8"
       is_visible="true"
       lpeversion="1"
       inverse="true"
       flatten="false"
       hide_clip="false" /><inkscape:path-effect
       effect="powerclip"
       message=""
       id="path-effect6"
       is_visible="true"
       lpeversion="1"
       inverse="true"
       flatten="false"
       hide_clip="false" /><clipPath
       clipPathUnits="userSpaceOnUse"
       id="clipath_lpe_path-effect8"><path
         id="path8"
         style="display:block;fill:none;stroke:#000000;stroke-width:10;stroke-linejoin:round"
         d="m 380.78382,289.45445 c 1e-5,29.17825 -24.80466,56.14006 -65.0703,70.72918 -40.26564,14.58912 -89.87496,14.58912 -130.1406,0 -40.26564,-14.58912 -65.0703,-41.55093 -65.0703,-70.72918 v -40.48622 c 0,-45.10566 58.26593,-81.67102 130.1406,-81.67102 71.87466,0 130.14059,36.56536 130.14059,81.67102 z"
         sodipodi:nodetypes="sssscscs" /></clipPath><clipPath
       clipPathUnits="userSpaceOnUse"
       id="clipPath22"><path
         id="path23"
         style="fill:none;stroke:#000000;stroke-width:2;stroke-linecap:round;stroke-linejoin:round;stroke-dasharray:none;stroke-opacity:1"
         d="m 636.23633,117.31055 c -15.4168,1.18743 -20.76327,6.1205 -28.97071,12.89453 -8.20744,6.77406 -65.0659,63.39823 -66.9375,65.45508 -1.87158,2.05687 -1.6875,5.98632 -1.6875,5.98632 l 0.14844,0.1504 c -1.48904,-0.1315 -2.84608,0.22455 -3.94531,1.22851 -7.09226,6.47757 -50.99595,52.73022 -51.2168,52.96289 -7.34985,-12.34739 -18.78711,-31.36914 -18.78711,-31.36914 l -0.16211,0.10547 c -0.0583,-0.0962 -0.10888,-0.19604 -0.16992,-0.29102 -6.20515,-9.65575 -24.31532,-9.06533 -40.45117,1.32032 -16.13585,10.38566 -24.18756,26.6333 -17.98242,36.28906 0.15888,0.24723 0.3316,0.483 0.50586,0.7168 l -0.0137,0.008 c 19.97322,26.77345 36.07054,39.80534 45.82031,44.86523 9.74977,5.05989 20.99756,3.48939 31.38476,-4.59179 3.53362,-2.74914 6.0645,-5.6318 7.78907,-8.63086 3.17758,-3.55835 58.83822,-65.89198 63.4707,-71.56641 0.76902,-0.942 0.94041,-2.26914 0.67187,-3.79883 l 0.23047,0.23438 c 1.43101,0.57037 3.76559,-2.42428 6.09961,-5.41797 2.33401,-2.99368 26.22061,-36.05106 65.81446,-78.79297 1.51664,-1.61534 0.62322,-7.64623 2.80664,-10.54297 2.18341,-2.89676 5.58203,-7.21484 5.58203,-7.21484 z" /></clipPath><clipPath
       clipPathUnits="userSpaceOnUse"
       id="clipPath41"><path
         style="display:none;stroke-width:1;stroke-linejoin:round"
         d="m 250.64342,155.60287 c -37.63987,0 -71.84835,9.42644 -97.46964,25.50533 -25.62128,16.07888 -43.50631,39.87322 -43.50632,67.86114 v 40.48508 c 0,36.33187 29.64498,66.30384 72.45621,81.81529 42.81123,15.51144 94.22614,15.51144 137.03738,0 42.81123,-15.51145 72.45833,-45.48341 72.45832,-81.81529 v -40.48508 c 0,-27.98792 -17.88503,-51.78226 -43.50631,-67.86114 -25.62129,-16.07889 -59.82978,-25.50533 -97.46964,-25.50533 z"
         id="path41" /><path
         id="lpe_path-effect41"
         style="display:block;stroke-width:1;stroke-linejoin:round"
         class="powerclip"
         d="m 108.74827,232.0866 h 283.7899 v 227.38694 h -283.7899 z m 141.89515,-76.48373 c -37.63987,0 -71.84835,9.42644 -97.46964,25.50533 -25.62128,16.07888 -43.50631,39.87322 -43.50632,67.86114 v 40.48508 c 0,36.33187 29.64498,66.30384 72.45621,81.81529 42.81123,15.51144 94.22614,15.51144 137.03738,0 42.81123,-15.51145 72.45833,-45.48341 72.45832,-81.81529 v -40.48508 c 0,-27.98792 -17.88503,-51.78226 -43.50631,-67.86114 -25.62129,-16.07889 -59.82978,-25.50533 -97.46964,-25.50533 z" /></clipPath><clipPath
       clipPathUnits="userSpaceOnUse"
       id="clipPath42"><ellipse
         style="display:none;fill:none;stroke:#000000;stroke-width:13.5087;stroke-linejoin:round;stroke-dasharray:none;stroke-opacity:1"
         id="ellipse43"
         cx="250.64322"
         cy="132.4245"
         rx="130.14061"
         ry="81.671021"
         d="M 380.78383,132.4245 A 130.14061,81.671021 0 0 1 250.64322,214.09552 130.14061,81.671021 0 0 1 120.50261,132.4245 130.14061,81.671021 0 0 1 250.64322,50.753479 130.14061,81.671021 0 0 1 380.78383,132.4245 Z" /><path
         id="lpe_path-effect43"
         style="fill:none;stroke:#000000;stroke-width:13.5087;stroke-linejoin:round;stroke-dasharray:none;stroke-opacity:1"
         class="powerclip"
         d="m 108.74827,125.54852 h 283.7899 v 180.83754 h -283.7899 z m 272.03556,6.87598 A 130.14061,81.671021 0 0 0 250.64322,50.753479 130.14061,81.671021 0 0 0 120.50261,132.4245 130.14061,81.671021 0 0 0 250.64322,214.09552 130.14061,81.671021 0 0 0 380.78383,132.4245 Z" /></clipPath><clipPath
       clipPathUnits="userSpaceOnUse"
       id="clipath_lpe_path-effect45"><path
         style="display:none;stroke-width:1;stroke-linejoin:round"
         d="m 250.64342,155.60287 c -37.63987,0 -71.84835,9.42644 -97.46964,25.50533 -25.62128,16.07888 -43.50631,39.87322 -43.50632,67.86114 v 40.48508 c 0,36.33187 29.64498,66.30384 72.45621,81.81529 42.81123,15.51144 94.22614,15.51144 137.03738,0 42.81123,-15.51145 72.45833,-45.48341 72.45832,-81.81529 v -40.48508 c 0,-27.98792 -17.88503,-51.78226 -43.50631,-67.86114 -25.62129,-16.07889 -59.82978,-25.50533 -97.46964,-25.50533 z"
         id="path45" /><path
         id="lpe_path-effect45"
         style="display:block;stroke-width:1;stroke-linejoin:round"
         class="powerclip"
         d="m 108.74827,232.0866 h 283.7899 v 227.38694 h -283.7899 z m 141.89515,-76.48373 c -37.63987,0 -71.84835,9.42644 -97.46964,25.50533 -25.62128,16.07888 -43.50631,39.87322 -43.50632,67.86114 v 40.48508 c 0,36.33187 29.64498,66.30384 72.45621,81.81529 42.81123,15.51144 94.22614,15.51144 137.03738,0 42.81123,-15.51145 72.45833,-45.48341 72.45832,-81.81529 v -40.48508 c 0,-27.98792 -17.88503,-51.78226 -43.50631,-67.86114 -25.62129,-16.07889 -59.82978,-25.50533 -97.46964,-25.50533 z" /></clipPath><clipPath
       clipPathUnits="userSpaceOnUse"
       id="clipPath54"><path
         id="path54"
         style="display:none;stroke-linecap:round;stroke-linejoin:round"
         d="m 244.4375,-2.9257813 c -3.10771,0.1587666 -6.18551,0.5715771 -9.25977,1.2675782 -13.25753,3.0014643 -23.18059,12.3331001 -30.5,23.2441401 -7.31941,10.911041 -12.48232,23.893635 -16.21093,37.177735 -3.7915,13.508189 -10.8286,36.603454 -16.94727,56.669918 -13.03936,-2.32429 -25.10324,-4.53196 -35.71289,-4.84179 -6.6746,-0.19492 -13.11682,0.26555 -19.40039,2.88086 -6.28357,2.61531 -12.05177,8.08837 -14.87305,14.84179 -2.578822,6.17306 -3.247624,13.46499 -1.07031,19.95899 2.17732,6.49399 6.62736,11.63163 11.95508,15.76758 10.65543,8.27189 25.55728,13.86786 45.66406,19.41406 39.09142,10.78285 102.32946,27.15167 174.38281,37.08789 71.35561,9.84001 92.94972,12.09495 104.03125,11.43555 8.17613,-0.48651 14.96503,-3.67251 22.16993,-9.07227 7.20489,-5.39976 15.17708,-15.14491 12.77929,-27.61328 -1.94448,-10.11119 -9.63548,-17.35744 -16.49023,-20.69531 -6.85475,-3.33788 -13.2978,-4.53551 -17.82617,-5.95313 -3.34057,-1.04577 -7.8686,-2.22514 -12.14649,-3.39844 2.13381,-6.84223 1.23178,-12.8286 -1.5293,-19.42578 -1.92349,-4.59591 -5.81865,-9.53005 -11.1582,-12.64453 2.49502,-12.31786 6.02854,-32.80847 5.26172,-49.529296 -0.5555,-12.107917 -4.17,-25.17654 -11.79883,-36.644531 -7.62883,-11.467991 -19.79672,-21.256977 -35.85742,-24.546875 -2.14875,-0.440156 -4.35082,-0.763007 -6.60156,-0.970703 C 347.69728,20.044674 333.05984,19.980694 319.42578,20.935547 288.17394,6.7911441 265.54266,-4.0039995 244.4375,-2.9257813 Z M 301.68164,243.18164 c -21.32246,1.64229 -32.53524,10.44253 -42.41602,18.59766 -3.6122,2.98135 -9.45201,8.58889 -17.52929,16.39257 -8.07728,7.80369 -17.87386,17.40672 -27.42578,26.82618 -9.55192,9.41946 -18.85498,18.65103 -25.92188,25.69531 -3.53345,3.52214 -6.5073,6.49671 -8.68164,8.68164 -2.17434,2.18493 -2.91707,2.87216 -4.16016,4.23828 -2.24801,2.47058 -3.27919,4.74853 -3.92968,6.84375 -0.69807,0.46004 -1.42249,0.88073 -2.04492,1.44922 -5.76693,5.2671 -20.62379,20.76341 -35.30079,36.07227 -9.04778,9.4373 -12.19167,12.76221 -17.52148,18.36328 -6.66138,-11.12066 -15.0625,-25.15039 -15.0625,-25.15039 a 12.0012,12.0012 0 0 0 -0.49219,-0.35743 c -0.0809,-0.13247 0.0375,0.0468 -0.10547,-0.17578 -6.75372,-10.50937 -19.110907,-14.33518 -30.820309,-13.95312 -11.709401,0.38205 -24.042678,4.52802 -35.615234,11.97656 -11.572447,7.44847 -20.457063,16.95918 -25.6601564,27.45898 -5.2030935,10.49981 -6.8538617,23.32571 -0.099609,33.83594 0.4405054,0.68545 0.8006968,1.16516 1.0546875,1.50586 a 12.0012,12.0012 0 0 0 0.029297,0.0762 c 25.3434089,33.97201 45.8548589,51.13193 60.5527349,58.75977 16.264272,8.44075 36.049969,5.23533 51.568359,-6.83789 5.37123,-4.1788 9.63511,-8.91193 12.63281,-14.125 l -1.45312,2.00976 c 1.95891,-2.19365 20.08814,-22.49575 38.44726,-43.13086 18.35913,-20.6351 35.97849,-40.39896 40.10938,-45.45898 1.04581,-1.28105 1.78442,-2.62885 2.3457,-3.99023 0.44824,-0.40096 0.90383,-0.8052 1.28516,-1.18555 2.19571,-2.19009 3.72613,-4.25918 5.16406,-6.10352 2.40193,-3.08079 9.56052,-13.00345 23.23047,-30.04882 13.65888,-17.03159 33.01584,-40.14593 57.15234,-66.20508 3.42011,-3.64266 3.61,-6.38445 3.98047,-8.28125 0.37047,-1.8968 0.48011,-3.30728 0.61328,-4.46094 0.26635,-2.30732 1.23695,-3.28032 -0.30078,-1.24023 2.53791,-3.36709 6.72656,-8.69141 6.72656,-8.69141 a 12.0012,12.0012 0 0 0 2.53125,-6.45313 12.0012,12.0012 0 0 0 -12.88281,-12.93359 z" /><path
         id="lpe_path-effect54"
         style="display:block;stroke-linecap:round;stroke-linejoin:round"
         class="powerclip"
         d="M 133.21915,119.78688 H 395.88986 V 493.20305 H 133.21915 Z M 244.4375,-2.9257813 c -3.10771,0.1587666 -6.18551,0.5715771 -9.25977,1.2675782 -13.25753,3.0014643 -23.18059,12.3331001 -30.5,23.2441401 -7.31941,10.911041 -12.48232,23.893635 -16.21093,37.177735 -3.7915,13.508189 -10.8286,36.603454 -16.94727,56.669918 -13.03936,-2.32429 -25.10324,-4.53196 -35.71289,-4.84179 -6.6746,-0.19492 -13.11682,0.26555 -19.40039,2.88086 -6.28357,2.61531 -12.05177,8.08837 -14.87305,14.84179 -2.578822,6.17306 -3.247624,13.46499 -1.07031,19.95899 2.17732,6.49399 6.62736,11.63163 11.95508,15.76758 10.65543,8.27189 25.55728,13.86786 45.66406,19.41406 39.09142,10.78285 102.32946,27.15167 174.38281,37.08789 71.35561,9.84001 92.94972,12.09495 104.03125,11.43555 8.17613,-0.48651 14.96503,-3.67251 22.16993,-9.07227 7.20489,-5.39976 15.17708,-15.14491 12.77929,-27.61328 -1.94448,-10.11119 -9.63548,-17.35744 -16.49023,-20.69531 -6.85475,-3.33788 -13.2978,-4.53551 -17.82617,-5.95313 -3.34057,-1.04577 -7.8686,-2.22514 -12.14649,-3.39844 2.13381,-6.84223 1.23178,-12.8286 -1.5293,-19.42578 -1.92349,-4.59591 -5.81865,-9.53005 -11.1582,-12.64453 2.49502,-12.31786 6.02854,-32.80847 5.26172,-49.529296 -0.5555,-12.107917 -4.17,-25.17654 -11.79883,-36.644531 -7.62883,-11.467991 -19.79672,-21.256977 -35.85742,-24.546875 -2.14875,-0.440156 -4.35082,-0.763007 -6.60156,-0.970703 C 347.69728,20.044674 333.05984,19.980694 319.42578,20.935547 288.17394,6.7911441 265.54266,-4.0039995 244.4375,-2.9257813 Z M 301.68164,243.18164 c -21.32246,1.64229 -32.53524,10.44253 -42.41602,18.59766 -3.6122,2.98135 -9.45201,8.58889 -17.52929,16.39257 -8.07728,7.80369 -17.87386,17.40672 -27.42578,26.82618 -9.55192,9.41946 -18.85498,18.65103 -25.92188,25.69531 -3.53345,3.52214 -6.5073,6.49671 -8.68164,8.68164 -2.17434,2.18493 -2.91707,2.87216 -4.16016,4.23828 -2.24801,2.47058 -3.27919,4.74853 -3.92968,6.84375 -0.69807,0.46004 -1.42249,0.88073 -2.04492,1.44922 -5.76693,5.2671 -20.62379,20.76341 -35.30079,36.07227 -9.04778,9.4373 -12.19167,12.76221 -17.52148,18.36328 -6.66138,-11.12066 -15.0625,-25.15039 -15.0625,-25.15039 a 12.0012,12.0012 0 0 0 -0.49219,-0.35743 c -0.0809,-0.13247 0.0375,0.0468 -0.10547,-0.17578 -6.75372,-10.50937 -19.110907,-14.33518 -30.820309,-13.95312 -11.709401,0.38205 -24.042678,4.52802 -35.615234,11.97656 -11.572447,7.44847 -20.457063,16.95918 -25.6601564,27.45898 -5.2030935,10.49981 -6.8538617,23.32571 -0.099609,33.83594 0.4405054,0.68545 0.8006968,1.16516 1.0546875,1.50586 a 12.0012,12.0012 0 0 0 0.029297,0.0762 c 25.3434089,33.97201 45.8548589,51.13193 60.5527349,58.75977 16.264272,8.44075 36.049969,5.23533 51.568359,-6.83789 5.37123,-4.1788 9.63511,-8.91193 12.63281,-14.125 l -1.45312,2.00976 c 1.95891,-2.19365 20.08814,-22.49575 38.44726,-43.13086 18.35913,-20.6351 35.97849,-40.39896 40.10938,-45.45898 1.04581,-1.28105 1.78442,-2.62885 2.3457,-3.99023 0.44824,-0.40096 0.90383,-0.8052 1.28516,-1.18555 2.19571,-2.19009 3.72613,-4.25918 5.16406,-6.10352 2.40193,-3.08079 9.56052,-13.00345 23.23047,-30.04882 13.65888,-17.03159 33.01584,-40.14593 57.15234,-66.20508 3.42011,-3.64266 3.61,-6.38445 3.98047,-8.28125 0.37047,-1.8968 0.48011,-3.30728 0.61328,-4.46094 0.26635,-2.30732 1.23695,-3.28032 -0.30078,-1.24023 2.53791,-3.36709 6.72656,-8.69141 6.72656,-8.69141 a 12.0012,12.0012 0 0 0 2.53125,-6.45313 12.0012,12.0012 0 0 0 -12.88281,-12.93359 z" /></clipPath><clipPath
       clipPathUnits="userSpaceOnUse"
       id="clipPath55"><path
         style="fill:none;stroke:#000000;stroke-width:1px;stroke-linecap:butt;stroke-linejoin:miter;stroke-opacity:1"
         d="m 367.49216,34.211532 c -1.70325,-0.348902 -3.46833,-0.609583 -5.29649,-0.778285 -16.14139,-1.489517 -31.19696,-1.491456 -44.99905,-0.343878 -37.39146,-16.870642 -61.1677,-27.1639791 -79.36949,-23.043153 -18.38556,4.162433 -30.8346,27.118719 -37.80734,51.960853 -4.55341,16.222681 -13.30713,45.010601 -20.05942,67.081181 l -0.43788,-0.0829 c -35.1635,-5.90756 -60.04204,-12.52289 -66.91724,3.93464 -6.87522,16.45751 9.7749,28.21808 48.66766,38.94614 38.89274,10.72806 101.60455,26.94802 172.83114,36.77024 71.22658,9.82221 94.0949,11.79409 101.68013,11.34273 7.58524,-0.45136 26.28433,-9.9207 23.87685,-22.4395 -2.4075,-12.5188 -15.44571,-14.12225 -26.11719,-17.46299 -10.67146,-3.34074 -32.7216,-8.86575 -32.7216,-8.86575 l -1.25184,-0.23856 c 2.6696,-11.39587 7.83873,-10.2144 13.69357,-8.16127 2.24895,-5.70495 -0.59403,-20.36256 -12.00318,-20.81502 l -2.95566,-0.68151 c 0,0 8.24449,-35.7514 7.26372,-57.137456 C 404.649,64.147535 393.04112,39.445017 367.49216,34.211532 Z"
         id="path55"
         sodipodi:nodetypes="sscssccssssssccccccs" /></clipPath><clipPath
       clipPathUnits="userSpaceOnUse"
       id="clipPath52"><path
         style="stroke-width:0.888315;stroke-linejoin:round"
         d="m 264.55392,230.6561 c -34.2223,0 -65.29467,7.99763 -88.23801,21.33811 -22.94334,13.34047 -38.09696,32.50044 -38.09696,54.27129 v 34.61827 c 0,28.2223 25.45925,52.916 64.16064,65.90813 38.70138,12.99214 85.64726,12.99214 124.34865,0 38.70138,-12.99213 64.16245,-37.68583 64.16244,-65.90813 V 306.2655 c 0,-21.77085 -15.15362,-40.93082 -38.09696,-54.27129 -22.94334,-13.34048 -54.01751,-21.33811 -88.2398,-21.33811 z"
         id="path52" /></clipPath><clipPath
       clipPathUnits="userSpaceOnUse"
       id="clipPath8"><path
         style="stroke-width:0.888315;stroke-linejoin:round"
         d="m 264.55392,230.6561 c -34.2223,0 -65.29467,7.99763 -88.23801,21.33811 -22.94334,13.34047 -38.09696,32.50044 -38.09696,54.27129 v 34.61827 c 0,28.2223 25.45925,52.916 64.16064,65.90813 38.70138,12.99214 85.64726,12.99214 124.34865,0 38.70138,-12.99213 64.16245,-37.68583 64.16244,-65.90813 V 306.2655 c 0,-21.77085 -15.15362,-40.93082 -38.09696,-54.27129 -22.94334,-13.34048 -54.01751,-21.33811 -88.2398,-21.33811 z"
         id="path8-2" /></clipPath><clipPath
       clipPathUnits="userSpaceOnUse"
       id="clipPath42-9"><ellipse
         style="display:none;fill:none;stroke:#000000;stroke-width:13.5087;stroke-linejoin:round;stroke-dasharray:none;stroke-opacity:1"
         id="ellipse43-3"
         cx="250.64322"
         cy="132.4245"
         rx="130.14061"
         ry="81.671021"
         d="M 380.78383,132.4245 A 130.14061,81.671021 0 0 1 250.64322,214.09552 130.14061,81.671021 0 0 1 120.50261,132.4245 130.14061,81.671021 0 0 1 250.64322,50.753479 130.14061,81.671021 0 0 1 380.78383,132.4245 Z" /><path
         id="lpe_path-effect43-1"
         style="fill:none;stroke:#000000;stroke-width:13.5087;stroke-linejoin:round;stroke-dasharray:none;stroke-opacity:1"
         class="powerclip"
         d="m 115.50262,125.54852 h 270.2812 v 174.03321 h -270.2812 z m 265.28121,6.87598 A 130.14061,81.671021 0 0 0 250.64322,50.753479 130.14061,81.671021 0 0 0 120.50261,132.4245 130.14061,81.671021 0 0 0 250.64322,214.09552 130.14061,81.671021 0 0 0 380.78383,132.4245 Z" /></clipPath><inkscape:path-effect
       effect="powerclip"
       message=""
       id="path-effect43-9"
       is_visible="true"
       lpeversion="1"
       inverse="true"
       flatten="false"
       hide_clip="false" /><clipPath
       clipPathUnits="userSpaceOnUse"
       id="clipath_lpe_path-effect39"><ellipse
         style="display:none;fill:none;stroke:#000000;stroke-width:13.5087;stroke-linejoin:round;stroke-dasharray:none;stroke-opacity:1"
         id="ellipse39"
         cx="250.64322"
         cy="132.4245"
         rx="130.14061"
         ry="81.671021" /></clipPath><inkscape:path-effect
       effect="powerclip"
       message=""
       id="path-effect39"
       is_visible="true"
       lpeversion="1"
       inverse="true"
       flatten="false"
       hide_clip="false" /><clipPath
       clipPathUnits="userSpaceOnUse"
       id="clipPath60"><path
         style="fill:none;fill-opacity:0.181675;stroke:#000000;stroke-linejoin:round;stroke-opacity:1"
         d="m 264.55078,124.5625 c -33.52599,0.0244 -64.04351,7.75176 -86.81055,20.70508 -22.65918,12.89195 -38.07326,31.42735 -39.06445,52.98437 a 6.0006,6.0006 0 0 0 -0.22266,0.53907 v 70.42578 c 0,6.36551 1.39027,12.58742 3.83008,18.51367 -2.42033,5.88207 -3.83008,12.10231 -3.83008,18.53515 v 34.61915 c 0,6.36506 1.39086,12.58657 3.83008,18.51171 -2.42083,5.88309 -3.83008,12.10384 -3.83008,18.53711 v 34.61719 c 0,28.61922 25.57132,53.21822 64.14063,66.16602 38.56922,12.94776 85.35266,12.94776 123.92187,0 38.56931,-12.9478 64.14064,-37.5468 64.14063,-66.16602 v -34.61719 c 0,-6.43327 -1.40924,-12.65402 -3.83008,-18.53711 2.43923,-5.92515 3.83008,-12.14665 3.83008,-18.51171 v -34.61915 c 0,-6.43284 -1.40974,-12.65308 -3.83008,-18.53515 2.43981,-5.92625 3.83008,-12.14816 3.83008,-18.51367 v -70.42578 a 6.0006,6.0006 0 0 0 -0.11914,-0.28711 l 0.0527,0.0508 c -0.85819,-21.70378 -16.35519,-40.35825 -39.14648,-53.3125 -22.79129,-12.95425 -53.33892,-20.67462 -86.88867,-20.67969 a 6.0006,6.0006 0 0 0 -0.004,0 z"
         id="path61" /></clipPath><clipPath
       clipPathUnits="userSpaceOnUse"
       id="clipPath55-4"><path
         style="fill:none;stroke:#000000;stroke-width:1px;stroke-linecap:butt;stroke-linejoin:miter;stroke-opacity:1"
         d="m 367.49216,34.211532 c -1.70325,-0.348902 -3.46833,-0.609583 -5.29649,-0.778285 -16.14139,-1.489517 -31.19696,-1.491456 -44.99905,-0.343878 -37.39146,-16.870642 -61.1677,-27.1639791 -79.36949,-23.043153 -18.38556,4.162433 -30.8346,27.118719 -37.80734,51.960853 -4.55341,16.222681 -13.30713,45.010601 -20.05942,67.081181 l -0.43788,-0.0829 c -35.1635,-5.90756 -60.04204,-12.52289 -66.91724,3.93464 -6.87522,16.45751 9.7749,28.21808 48.66766,38.94614 38.89274,10.72806 101.60455,26.94802 172.83114,36.77024 71.22658,9.82221 94.0949,11.79409 101.68013,11.34273 7.58524,-0.45136 26.28433,-9.9207 23.87685,-22.4395 -2.4075,-12.5188 -15.44571,-14.12225 -26.11719,-17.46299 -10.67146,-3.34074 -32.7216,-8.86575 -32.7216,-8.86575 l -1.25184,-0.23856 c 2.6696,-11.39587 7.83873,-10.2144 13.69357,-8.16127 2.24895,-5.70495 -0.59403,-20.36256 -12.00318,-20.81502 l -2.95566,-0.68151 c 0,0 8.24449,-35.7514 7.26372,-57.137456 C 404.649,64.147535 393.04112,39.445017 367.49216,34.211532 Z"
         id="path55-7"
         sodipodi:nodetypes="sscssccssssssccccccs" /></clipPath><clipPath
       clipPathUnits="userSpaceOnUse"
       id="clipath_lpe_path-effect43-9"><ellipse
         style="display:none;fill:none;stroke:#000000;stroke-width:13.5087;stroke-linejoin:round;stroke-dasharray:none;stroke-opacity:1"
         id="ellipse2"
         cx="250.64322"
         cy="132.4245"
         rx="130.14061"
         ry="81.671021" /></clipPath></defs><g
     inkscape:label="Layer 1"
     inkscape:groupmode="layer"
     id="layer1"><g
       id="g20"
       transform="translate(5.0000019,5)"><g
         id="g46"
         clip-path="url(#clipPath54)"
         inkscape:path-effect="#path-effect54"><g
           id="g4"
           transform="matrix(0.9228635,0,0,0.85506059,33.245027,87.164955)"
           style="stroke-width:1.12573"><path
             style="fill:none;stroke:#000000;stroke-width:13.5087;stroke-linejoin:round;stroke-dasharray:none;stroke-opacity:1"
             id="path1"
             sodipodi:type="arc"
             sodipodi:cx="250.64322"
             sodipodi:cy="132.4245"
             sodipodi:rx="130.14059"
             sodipodi:ry="81.671021"
             d="M 380.78381,132.4245 A 130.14059,81.671021 0 0 1 250.64322,214.09552 130.14059,81.671021 0 0 1 120.50262,132.4245 130.14059,81.671021 0 0 1 250.64322,50.753479 130.14059,81.671021 0 0 1 380.78381,132.4245 Z" /><path
             id="ellipse1"
             style="fill:#000000;fill-opacity:1;stroke:#000000;stroke-width:13.5087;stroke-linejoin:round;stroke-dasharray:none"
             d="m 120.50262,130.54852 v 82.36219 c 0,29.17825 24.80466,56.14006 65.0703,70.72918 40.26564,14.58912 89.87496,14.58912 130.1406,0 40.26564,-14.58912 65.0703,-41.55093 65.0703,-70.72918 v -82.36219"
             sodipodi:nodetypes="cssssc"
             clip-path="url(#clipPath42)"
             inkscape:path-effect="#path-effect43"
             inkscape:original-d="m 120.50262,130.54852 v 82.36219 c 0,29.17825 24.80466,56.14006 65.0703,70.72918 40.26564,14.58912 89.87496,14.58912 130.1406,0 40.26564,-14.58912 65.0703,-41.55093 65.0703,-70.72918 v -82.36219" /></g><path
           id="path4"
           style="fill:#000000;fill-opacity:1;stroke:#000000;stroke-width:13.5087;stroke-linejoin:round;stroke-dasharray:none"
           d="m 380.78382,365.99819 c 1e-5,29.17825 -24.80466,56.14006 -65.0703,70.72918 -40.26564,14.58912 -89.87496,14.58912 -130.1406,0 -40.26564,-14.58912 -65.0703,-41.55093 -65.0703,-70.72918 v -40.48622 c 0,-45.10566 58.26593,-81.67102 130.1406,-81.67102 71.87466,0 130.14059,36.56536 130.14059,81.67102 z"
           sodipodi:nodetypes="sssscscs"
           clip-path="url(#clipPath41)"
           transform="matrix(0.9228635,0,0,0.85506059,33.245027,99.600633)"
           inkscape:path-effect="#path-effect41"
           inkscape:original-d="m 380.78382,365.99819 c 1e-5,29.17825 -24.80466,56.14006 -65.0703,70.72918 -40.26564,14.58912 -89.87496,14.58912 -130.1406,0 -40.26564,-14.58912 -65.0703,-41.55093 -65.0703,-70.72918 v -40.48622 c 0,-45.10566 58.26593,-81.67102 130.1406,-81.67102 71.87466,0 130.14059,36.56536 130.14059,81.67102 z" /><path
           id="path43"
           style="fill:#000000;fill-opacity:1;stroke:#000000;stroke-width:13.5087;stroke-linejoin:round;stroke-dasharray:none"
           d="m 380.78382,365.99819 c 1e-5,29.17825 -24.80466,56.14006 -65.0703,70.72918 -40.26564,14.58912 -89.87496,14.58912 -130.1406,0 -40.26564,-14.58912 -65.0703,-41.55093 -65.0703,-70.72918 v -40.48622 c 0,-45.10566 58.26593,-81.67102 130.1406,-81.67102 71.87466,0 130.14059,36.56536 130.14059,81.67102 z"
           sodipodi:nodetypes="sssscscs"
           clip-path="url(#clipath_lpe_path-effect45)"
           transform="matrix(0.9228635,0,0,0.85506059,33.245027,27.933259)"
           inkscape:path-effect="#path-effect45"
           inkscape:original-d="m 380.78382,365.99819 c 1e-5,29.17825 -24.80466,56.14006 -65.0703,70.72918 -40.26564,14.58912 -89.87496,14.58912 -130.1406,0 -40.26564,-14.58912 -65.0703,-41.55093 -65.0703,-70.72918 v -40.48622 c 0,-45.10566 58.26593,-81.67102 130.1406,-81.67102 71.87466,0 130.14059,36.56536 130.14059,81.67102 z" /></g><g
         id="g23"
         transform="matrix(1.2322295,0,0,1.2322295,-481.38629,110.59204)"
         style="stroke-width:0.811537"><path
           style="fill:#000000;fill-opacity:1;stroke:none;stroke-width:6.4923;stroke-linecap:round;stroke-linejoin:round;stroke-dasharray:none;stroke-opacity:1"
           d="m 451.11856,233.05123 c 3.31656,5.16084 -2.29376,11.93446 -11.03485,17.56056 -8.74107,5.62608 -17.30281,7.97416 -20.61935,2.81332 -3.31654,-5.16084 2.44539,-11.63122 11.18646,-17.25731 8.74105,-5.62608 17.15118,-8.27739 20.46774,-3.11657 z"
           id="path21" /><path
           id="path11"
           style="fill:none;stroke:#000000;stroke-width:6.4923;stroke-linecap:round;stroke-linejoin:round;stroke-dasharray:none;stroke-opacity:1"
           d="m 555.93332,219.2793 c 1.43101,0.57037 3.76502,-2.42331 6.09904,-5.417 2.33401,-2.99368 26.22225,-36.05295 65.8161,-78.79486 1.51664,-1.61534 0.62247,-7.64465 2.80589,-10.54139 2.18341,-2.89676 5.58227,-7.21498 5.58227,-7.21498 -15.4168,1.18743 -20.76284,6.11976 -28.97027,12.89379 -8.20744,6.77406 -65.06604,63.39798 -66.93763,65.45483 -1.87159,2.05687 -1.68791,5.98677 -1.68791,5.98677 m -132.07512,61.12016 c 19.97322,26.77345 36.07126,39.8062 45.82103,44.86609 9.74977,5.05989 20.99778,3.48986 31.38498,-4.59132 10.38719,-8.08118 12.28323,-17.29182 9.65805,-27.33992 m -6.98026,-14.9899 c -6.76778,-11.43453 -21.60892,-36.09208 -21.60892,-36.09208 m 25.00735,71.71048 c 0,0 60.41749,-67.65 65.18239,-73.48663 4.76487,-5.83664 -13.07687,-26.31185 -20.187,-19.81796 -7.11012,6.49388 -51.28637,53.03743 -51.28637,53.03743 m -19.04892,-31.62953 c 6.20515,9.65577 -1.8453,25.90255 -17.98116,36.28821 -16.13585,10.38564 -34.24679,10.97733 -40.45194,1.32158 -6.20514,-9.65576 1.84529,-25.90253 17.98114,-36.28819 16.13585,-10.38565 34.24681,-10.97735 40.45196,-1.3216"
           sodipodi:nodetypes="cscscssccssccccssccsssc" /><path
           style="fill:#000000;fill-opacity:1;stroke:none;stroke-width:0.811537px;stroke-linecap:butt;stroke-linejoin:miter;stroke-opacity:1"
           d="m 395.70084,260.76837 c 18.79958,12.12876 45.78607,13.03842 68.22428,-17.28349 2.72897,6.67082 22.74143,32.44444 22.74143,32.44444 l 63.37277,-66.10175 -1.81931,-3.94185 55.48908,-61.85668 -60.94702,57.91483 -20.31568,-4.8515 116.73933,-111.887822 28.50259,43.663542 -213.4662,227.41427 z"
           id="path22"
           clip-path="url(#clipPath22)" /></g><path
         id="path29"
         style="stroke-linecap:round"
         d="m 188.56641,-23.951172 c -8.04946,3.009829 -12.71295,87.156919 -3.15235,119.3125 -0.17617,0.620316 -1.63281,5.785152 -1.63281,5.785152 0.009,0.11894 0.0231,0.23751 0.041,0.35547 -0.48338,1.42032 -0.30342,2.98264 0.49023,4.25586 2.97443,4.25952 7.66507,6.49146 13.27734,8.58203 5.61228,2.09057 12.31235,3.77767 19.47852,5.27149 14.33234,2.98764 30.54589,5.1615 42.31055,7.26172 24.03257,4.29028 54.18156,8.74783 68.16015,11.04492 13.22163,2.1727 28.61536,6.85092 29.38672,7.08594 2.922,1.40472 5.71839,2.86347 8.24024,4.43554 -0.23743,-3.60339 1.00539,-6.05409 0.64257,-8.93554 13.52201,5.47711 31.0346,-0.99779 43.12577,0.54546 12.09117,1.54325 39.3215,-12.0982 39.3215,-12.0982 -3.53712,-5.71952 -8.74219,-136.8378887 -8.74219,-136.8378888 L 338.55859,28.609375 c -8.09397,0.724869 -16.75908,3.769741 -21.61221,4.541227 -32.80524,4.361643 -57.78475,14.701673 -79.35068,-4.349821 10.42573,5.101253 26.37337,5.658674 39.27149,2.78711 9.96799,-2.21922 18.66522,-1.95789 22.57422,-3.095703 1.03881,-0.283432 2.84869,-1.252782 3.29494,-2.681638 1.07558,-2.543531 -0.11458,-5.477384 -2.65821,-6.552735 -18.33951,-7.755835 -33.36965,-14.3920777 -48.3164,-15.2832026 -0.4115,-0.024534 -0.82293,-0.017478 -1.23438,-0.033203 L 190.37695,-23.261719 c -0.61848,-0.697549 -1.22336,-0.909011 -1.81054,-0.689453 z m -83.875,131.212892 1.23242,57.83008 79.83594,18.48632 c 22.51364,5.87883 49.1374,12.32597 79.41601,18.38672 l 163.0332,37.75 20.31055,-18.68164 c 2.00527,-1.07095 4.00487,-2.26941 5.94922,-3.72656 3.22226,-2.41485 6.29648,-5.59538 8.26367,-9.3457 L 480.5918,191.5332 c 0,0 -10.51895,-3.2867 -23.2793,-7.0957 -1.6964,-1.43553 -3.53737,-2.62917 -5.42188,-3.54688 -5.71134,-2.78128 -11.85407,-4.00131 -16.85351,-5.5664 -10.92524,-3.42018 -28.83519,-3.64706 -28.83519,-3.64706 -3.55235,-0.94042 -5.62548,-1.65558 -6.57649,-0.65936 -0.70747,2.82885 -1.31281,7.10067 -1.15473,10.74782 -17.89601,-2.39066 -36.53479,-4.49926 -50.7207,-4.1582 -30.92995,0.74361 -102.90605,-11.59377 -151.05078,-21.91992 -7.38696,-1.58437 -13.96299,-3.1504 -20.1543,-4.69922 2.0165,-7.391 4.50007,-16.46125 5.25849,-20.09663 -1.09936,-1.28216 -3.35614,-3.57277 -7.31081,-4.23812 -16.61646,-2.79161 -26.77388,-8.37049 -38.2133,-8.96603 -14.65002,-4.28316 -28.1704,-8.53693 -31.58789,-10.42578 z"
         clip-path="url(#clipPath55)"
         sodipodi:nodetypes="sccccsssscccscccccscccsccsccccccscccsscccssccccc" /><path
         id="path40"
         style="display:block;fill:none;stroke:none;stroke-width:1px;stroke-linecap:butt;stroke-linejoin:miter;stroke-opacity:1"
         d="M 367.49219,34.211532 C 365.78893,33.862631 364.02386,33.601948 362.1957,33.433247 346.05431,31.943729 330.99874,31.941792 317.19665,33.08937 279.80519,16.218728 256.02896,5.92539 237.82715,10.046216 219.44159,14.20865 206.99256,37.164935 200.01981,62.00707 c -4.5534,16.22268 -13.30712,45.01061 -20.05942,67.08119 l -0.43787,-0.0829 c -35.16351,-5.90756 -60.04204,-12.52289 -66.91725,3.93465 -6.87521,16.45751 9.77491,28.21808 48.66767,38.94614 38.89273,10.72805 101.60455,26.94802 172.83114,36.77023 71.22658,9.82222 94.0949,11.79409 101.68013,11.34273 7.58525,-0.45135 26.28433,-9.92069 23.87684,-22.4395 -2.40749,-12.51879 -15.4457,-14.12225 -26.11717,-17.46299 -10.67148,-3.34073 -32.72161,-8.86574 -32.72161,-8.86574 l -1.25184,-0.23856 c 2.6696,-11.39587 7.83873,-10.2144 13.69357,-8.16127 2.24894,-5.70494 -0.59403,-20.36256 -12.00318,-20.81503 l -2.95566,-0.6815 c 0,0 8.24449,-35.7514 7.26372,-57.137464 C 404.64903,64.147539 393.04114,39.445021 367.49219,34.211535 Z M 302.60288,255.14556 c -18.99703,1.46318 -25.58511,7.54186 -35.69856,15.88902 -10.11345,8.3472 -80.17612,78.12117 -82.48236,80.65568 -2.30622,2.53454 -2.07939,7.37652 -2.07939,7.37652 l 0.18291,0.18533 c -1.83484,-0.16204 -3.50702,0.27669 -4.86152,1.5138 -8.7393,7.98186 -62.83872,64.97574 -63.11086,65.26244 -9.0567,-15.21482 -23.15003,-38.65398 -23.15003,-38.65398 l -0.19975,0.12996 c -0.0718,-0.11854 -0.13417,-0.24156 -0.20938,-0.3586 -7.646172,-11.8981 -29.962058,-11.17057 -49.845129,1.62694 -19.88307,12.79751 -29.804624,32.81833 -22.158468,44.71645 0.195777,0.30464 0.408607,0.59516 0.623336,0.88326 l -0.01688,0.01 c 24.611591,32.99103 44.447184,49.04931 56.461138,55.28426 12.013953,6.23494 25.873813,4.29973 38.673223,-5.65814 4.35423,-3.38757 7.47286,-6.93967 9.59792,-10.6352 3.91551,-4.38471 72.50219,-81.19405 78.21047,-88.18625 0.94761,-1.16076 1.1588,-2.7961 0.8279,-4.68103 l 0.28399,0.28881 c 1.76334,0.70283 4.64007,-2.98726 7.51612,-6.67618 2.87604,-3.6889 32.30981,-44.42317 81.09852,-97.09102 1.86885,-1.99046 0.76795,-9.42191 3.45843,-12.99135 2.69046,-3.56948 6.87834,-8.89035 6.87834,-8.89035 z" /></g><g
       id="g19"
       transform="translate(-2.2772548,34.109027)"><path
         style="font-weight:bold;font-size:320px;line-height:1.25;font-family:'Courier New';-inkscape-font-specification:'Courier New Bold';letter-spacing:-20px"
         d="m 1855.1392,279.84454 q -7.8125,-4.84375 -16.4062,-7.1875 -8.5938,-2.5 -17.9688,-2.5 -18.5937,0 -29.5312,6.09375 -4.8438,2.65625 -4.8438,5.78125 0,3.59375 6.5625,7.03125 5,2.5 22.3438,4.84375 31.875,4.375 44.375,8.75 16.4062,5.78125 25.3125,17.1875 8.9062,11.40625 8.9062,24.0625 0,17.1875 -15.1562,28.75 -21.7188,16.71875 -56.4063,16.71875 -13.9062,0 -25.7812,-2.5 -11.7188,-2.34375 -21.5625,-7.03125 -2.3438,2.03125 -5,3.125 -2.6563,1.09375 -5.4688,1.09375 -7.5,0 -12.0312,-4.84375 -4.375,-5 -4.375,-16.5625 v -10.78125 q 0,-11.5625 4.375,-16.40625 4.5312,-5 11.7187,-5 5.7813,0 9.6875,3.28125 3.9063,3.125 6.0938,10.9375 7.3437,6.25 17.6562,9.53125 10.3125,3.125 23.75,3.125 22.0313,0 34.2188,-6.875 5.7812,-3.4375 5.7812,-7.1875 0,-6.25 -8.2812,-10.3125 -8.2813,-4.0625 -34.2188,-6.875 -38.5937,-4.0625 -51.5625,-15.625 -12.9687,-11.40625 -12.9687,-28.125 0,-17.1875 14.5312,-28.59375 19.6875,-15.625 51.5625,-15.625 11.0938,0 21.25,2.1875 10.3125,2.03125 19.6875,6.40625 2.9688,-2.1875 5.4688,-3.28125 2.6562,-1.09375 4.8437,-1.09375 6.5625,0 10.9375,5 4.375,4.84375 4.375,16.40625 v 7.8125 q 0,10.46875 -2.5,14.21875 -5,7.1875 -13.5937,7.1875 -5.7813,0 -10.1563,-3.59375 -4.375,-3.59375 -5.625,-9.53125 z"
         id="path13" /><path
         style="font-weight:bold;font-size:320px;line-height:1.25;font-family:'Courier New';-inkscape-font-specification:'Courier New Bold';letter-spacing:-20px"
         d="m 1716.5455,242.34454 v 109.84375 q 10.1562,0 15,4.53125 4.8437,4.53125 4.8437,11.5625 0,7.03125 -5,11.5625 -4.8437,4.375 -16.4062,4.375 h -30.4688 v -7.34375 q -13.75,6.25 -26.25,9.375 -12.5,3.125 -23.75,3.125 -15.7812,0 -27.3437,-6.5625 -11.5625,-6.71875 -18.2813,-18.4375 -4.8437,-8.4375 -4.8437,-21.09375 v -68.90625 h -5.4688 q -11.5625,0 -16.5625,-4.375 -4.8437,-4.53125 -4.8437,-11.71875 0,-7.03125 4.8437,-11.40625 5,-4.53125 16.5625,-4.53125 h 37.5 v 95.3125 q 0,10.15625 4.8438,15 5,4.6875 15.1562,4.6875 9.6875,0 20.7813,-3.75 11.25,-3.90625 27.6562,-13.90625 v -65.3125 h -11.5625 q -11.5625,0 -16.5625,-4.375 -4.8437,-4.53125 -4.8437,-11.71875 0,-7.03125 4.8437,-11.40625 5,-4.53125 16.5625,-4.53125 z"
         id="path12" /><path
         style="font-weight:bold;font-size:320px;line-height:1.25;font-family:'Courier New';-inkscape-font-specification:'Courier New Bold';letter-spacing:-20px"
         d="m 1469.8267,242.34454 v 20 q 20.1563,-14.53125 31.7188,-19.375 11.7187,-4.84375 21.875,-4.84375 15.625,0 30.3125,11.5625 10,7.8125 10,15.9375 0,6.875 -4.8438,11.71875 -4.6875,4.6875 -11.4062,4.6875 -5.9375,0 -12.5,-5.9375 -6.5625,-5.9375 -11.7188,-5.9375 -6.7187,0 -20.1562,8.4375 -13.2813,8.4375 -33.2813,25.3125 v 48.28125 h 45.625 q 11.5625,0 16.4063,4.53125 5,4.375 5,11.5625 0,7.03125 -5,11.5625 -4.8438,4.375 -16.4063,4.375 h -96.7187 q -11.5625,0 -16.5625,-4.375 -4.8438,-4.53125 -4.8438,-11.71875 0,-7.03125 4.8438,-11.40625 5,-4.53125 16.5625,-4.53125 h 19.0625 v -77.8125 h -11.5625 q -11.5625,0 -16.5625,-4.375 -4.8438,-4.53125 -4.8438,-11.71875 0,-7.03125 4.8438,-11.40625 5,-4.53125 16.5625,-4.53125 z"
         id="path10" /><path
         id="path7"
         style="font-weight:bold;font-size:320px;line-height:1.25;font-family:'Courier New';-inkscape-font-specification:'Courier New Bold';letter-spacing:-20px"
         d="m 1384.8267,329.53204 h -131.4062 q 5,12.5 17.6562,20.15625 12.8125,7.65625 34.5313,7.65625 17.8125,0 47.3437,-7.65625 12.1875,-3.125 16.875,-3.125 6.4063,0 10.7813,4.53125 4.375,4.53125 4.375,11.40625 0,6.25 -4.6875,10.625 -6.25,5.78125 -30.4688,11.09375 -24.2187,5.15625 -46.5625,5.15625 -38.4375,0 -61.5625,-21.71875 -22.9687,-21.71875 -22.9687,-53.4375 0,-33.75 24.8437,-54.84375 25,-21.25 57.5,-21.25 19.5313,0 35.7813,6.875 16.4062,6.875 24.375,14.84375 11.25,11.5625 18.5937,28.59375 5,11.875 5,27.5 z m -35.4687,-32.03125 q -7.3438,-13.75 -19.2188,-20.46875 -11.875,-6.875 -28.2812,-6.875 -16.25,0 -28.125,6.875 -11.875,6.71875 -19.375,20.46875 z" /><path
         style="font-weight:bold;font-size:320px;line-height:1.25;font-family:'Courier New';-inkscape-font-specification:'Courier New Bold';letter-spacing:-20px"
         d="m 1148.4205,181.56329 v 170.625 h 38.4375 q 11.5625,0 16.4062,4.53125 5,4.375 5,11.5625 0,7.03125 -5,11.5625 -4.8437,4.375 -16.4062,4.375 h -108.9063 q -11.5625,0 -16.5625,-4.375 -4.8437,-4.53125 -4.8437,-11.71875 0,-7.03125 4.8437,-11.40625 5,-4.53125 16.5625,-4.53125 h 38.4375 V 213.59454 h -25.7812 q -11.4063,0 -16.4063,-4.375 -5,-4.53125 -5,-11.71875 0,-7.03125 4.8438,-11.40625 5,-4.53125 16.5625,-4.53125 z"
         id="path6" /><path
         style="font-weight:bold;font-size:320px;line-height:1.25;font-family:'Courier New';-inkscape-font-specification:'Courier New Bold';letter-spacing:-20px"
         d="m 976.38922,181.56329 v 170.625 h 38.43748 q 11.5625,0 16.4063,4.53125 5,4.375 5,11.5625 0,7.03125 -5,11.5625 -4.8438,4.375 -16.4063,4.375 H 905.92047 q -11.5625,0 -16.5625,-4.375 -4.84375,-4.53125 -4.84375,-11.71875 0,-7.03125 4.84375,-11.40625 5,-4.53125 16.5625,-4.53125 h 38.4375 V 213.59454 h -25.78125 q -11.40625,0 -16.40625,-4.375 -5,-4.53125 -5,-11.71875 0,-7.03125 4.84375,-11.40625 5,-4.53125 16.5625,-4.53125 z"
         id="path5" /><path
         id="path2"
         style="font-weight:bold;font-size:320px;line-height:1.25;font-family:'Courier New';-inkscape-font-specification:'Courier New Bold';letter-spacing:-20px"
         d="m 871.54547,315.93829 q 0,18.4375 -10.3125,35.78125 -10.15625,17.1875 -30.46875,27.5 -20.15625,10.15625 -42.1875,10.15625 -21.875,0 -41.875,-10 -20,-10.15625 -30.46875,-27.5 -10.46875,-17.34375 -10.46875,-36.25 0,-19.21875 10.625,-37.65625 10.625,-18.59375 30.46875,-29.21875 20,-10.625 41.71875,-10.625 21.875,0 42.03125,10.9375 20.3125,10.78125 30.625,29.21875 10.3125,18.28125 10.3125,37.65625 z m -32.03125,0.15625 q 0,-15.46875 -11.09375,-28.4375 -15.15625,-17.5 -39.84375,-17.5 -21.71875,0 -36.25,13.90625 -14.53125,13.90625 -14.53125,32.1875 0,15 14.6875,28.125 14.6875,12.96875 36.09375,12.96875 21.5625,0 36.25,-12.96875 14.6875,-13.125 14.6875,-28.28125 z" /><path
         style="opacity:1;fill:#000000;fill-opacity:1;stroke:#000000;stroke-width:10;stroke-linecap:round;stroke-linejoin:miter;stroke-dasharray:none;stroke-opacity:1"
         d="m 511.71484,154.6875 c -9.5777,17.22153 -23.12651,38.847 -38.63086,44.42578 -6.13733,2.20876 -9.32199,8.97399 -7.11328,15.11133 2.20819,6.13714 8.97205,9.32286 15.10938,7.11523 16.44958,-5.91887 42.77211,-21.39004 54.93945,-34.65234 h 64.05664 v 217.78125 c 18.16031,16.03632 47.40387,25.28148 66.87305,25.63086 6.77216,0.12153 13.24321,-2.27109 14.92578,-8.83203 1.68322,-6.56077 -2.27109,-13.24517 -8.83203,-14.92774 -13.9104,-3.568 -35.83396,-10.5224 -40.9668,-25.05859 V 186.6875 h 64.0586 c 12.16734,13.2623 38.48792,28.73347 54.9375,34.65234 6.13733,2.20763 12.90313,-0.97809 15.11132,-7.11523 2.20871,-6.13734 -0.97595,-12.90257 -7.11328,-15.11133 -15.50435,-5.57878 -29.05316,-27.20425 -38.63086,-44.42578 z"
         id="path30" /><path
         id="path19"
         style="opacity:1;fill:#000000;fill-opacity:1;stroke:none;stroke-width:32;stroke-linecap:round;stroke-linejoin:round;stroke-dasharray:none;stroke-opacity:0.470774"
         d="m 630.03071,30.929182 a 19.736697,19.736697 0 0 0 -27.90884,1.4e-5 19.736697,19.736697 0 0 0 0,27.912227 19.736697,19.736697 0 0 0 27.91228,-0.0028 19.736697,19.736697 0 0 0 0,-27.908771 z m 35.40452,35.404607 a 19.736697,19.736697 0 0 0 -27.9087,0 19.736697,19.736697 0 0 0 0,27.912241 19.736697,19.736697 0 0 0 27.91215,-0.003 19.736697,19.736697 0 0 0 0,-27.908778 z m -70.80918,0 a 19.736697,19.736697 0 0 0 -27.9087,0 19.736697,19.736697 0 0 0 0,27.912231 19.736697,19.736697 0 0 0 27.91214,-0.003 19.736697,19.736697 0 0 0 0,-27.908768 z m 35.40466,35.404591 a 19.736697,19.736697 0 0 0 -27.90884,0 19.736697,19.736697 0 0 0 0,27.91224 19.736697,19.736697 0 0 0 27.91228,-0.003 19.736697,19.736697 0 0 0 0,-27.9088 z" /></g></g></svg>
