<?xml version="1.0" encoding="UTF-8" standalone="no"?>
<!-- Created with Inkscape (http://www.inkscape.org/) -->

<svg
   width="510"
   height="510"
   viewBox="0 0 510 510.00002"
   version="1.1"
   id="svg1"
   inkscape:version="1.4 (e7c3feb, 2024-10-09)"
   sodipodi:docname="logo-icon-color-v001.svg"
   xml:space="preserve"
   inkscape:export-filename="logo-icon-color-v001.png"
   inkscape:export-xdpi="192"
   inkscape:export-ydpi="192"
   xmlns:inkscape="http://www.inkscape.org/namespaces/inkscape"
   xmlns:sodipodi="http://sodipodi.sourceforge.net/DTD/sodipodi-0.dtd"
   xmlns:xlink="http://www.w3.org/1999/xlink"
   xmlns="http://www.w3.org/2000/svg"
   xmlns:svg="http://www.w3.org/2000/svg"><sodipodi:namedview
     id="namedview1"
     pagecolor="#ffffff"
     bordercolor="#666666"
     borderopacity="1.0"
     inkscape:showpageshadow="2"
     inkscape:pageopacity="0.0"
     inkscape:pagecheckerboard="0"
     inkscape:deskcolor="#d1d1d1"
     inkscape:document-units="px"
     inkscape:zoom="1.648973"
     inkscape:cx="137.35822"
     inkscape:cy="309.88985"
     inkscape:window-width="2560"
     inkscape:window-height="1371"
     inkscape:window-x="0"
     inkscape:window-y="32"
     inkscape:window-maximized="1"
     inkscape:current-layer="layer1"
     showgrid="false" /><defs
     id="defs1"><inkscape:path-effect
       effect="powerclip"
       message=""
       id="path-effect47"
       is_visible="true"
       lpeversion="1"
       inverse="true"
       flatten="false"
       hide_clip="false" /><inkscape:path-effect
       effect="powerclip"
       message=""
       id="path-effect44"
       is_visible="true"
       lpeversion="1"
       inverse="true"
       flatten="false"
       hide_clip="false" /><inkscape:path-effect
       effect="powerclip"
       message=""
       id="path-effect39"
       is_visible="true"
       lpeversion="1"
       inverse="true"
       flatten="false"
       hide_clip="false" /><linearGradient
       id="linearGradient36"
       inkscape:collect="always"><stop
         style="stop-color:#98aab6;stop-opacity:1;"
         offset="0"
         id="stop37" /><stop
         style="stop-color:#4c555b;stop-opacity:1;"
         offset="1"
         id="stop38" /></linearGradient><linearGradient
       id="linearGradient34"
       inkscape:collect="always"><stop
         style="stop-color:#f4fbff;stop-opacity:1;"
         offset="0.02272727"
         id="stop36" /><stop
         style="stop-color:#e0f4ff;stop-opacity:1;"
         offset="0.4112156"
         id="stop34" /><stop
         style="stop-color:#76838c;stop-opacity:1;"
         offset="1"
         id="stop35" /></linearGradient><linearGradient
       id="linearGradient29"
       inkscape:collect="always"><stop
         style="stop-color:#edf7fd;stop-opacity:1;"
         offset="0.01911302"
         id="stop30" /><stop
         style="stop-color:#b4c8d5;stop-opacity:1;"
         offset="0.1382587"
         id="stop28" /><stop
         style="stop-color:#4a5257;stop-opacity:1;"
         offset="1"
         id="stop29" /></linearGradient><inkscape:path-effect
       effect="powerclip"
       message=""
       id="path-effect17"
       is_visible="true"
       lpeversion="1"
       inverse="true"
       flatten="false"
       hide_clip="false" /><inkscape:path-effect
       effect="powerclip"
       message=""
       id="path-effect15"
       is_visible="true"
       lpeversion="1"
       inverse="true"
       flatten="false"
       hide_clip="false" /><inkscape:path-effect
       effect="powerclip"
       message=""
       id="path-effect13"
       is_visible="true"
       lpeversion="1"
       inverse="true"
       flatten="false"
       hide_clip="false" /><inkscape:path-effect
       effect="powerclip"
       message=""
       id="path-effect54"
       is_visible="true"
       lpeversion="1"
       inverse="true"
       flatten="false"
       hide_clip="false" /><inkscape:path-effect
       effect="powerclip"
       message=""
       id="path-effect45"
       is_visible="true"
       lpeversion="1"
       inverse="true"
       flatten="false"
       hide_clip="false" /><inkscape:path-effect
       effect="powerclip"
       message=""
       id="path-effect43"
       is_visible="true"
       lpeversion="1"
       inverse="true"
       flatten="false"
       hide_clip="false" /><inkscape:path-effect
       effect="powerclip"
       message=""
       id="path-effect41"
       is_visible="true"
       lpeversion="1"
       inverse="true"
       flatten="false"
       hide_clip="false" /><inkscape:path-effect
       effect="powerclip"
       message=""
       id="path-effect40"
       is_visible="true"
       lpeversion="1"
       inverse="true"
       flatten="false"
       hide_clip="false" /><inkscape:path-effect
       effect="powerclip"
       message=""
       id="path-effect8"
       is_visible="true"
       lpeversion="1"
       inverse="true"
       flatten="false"
       hide_clip="false" /><inkscape:path-effect
       effect="powerclip"
       message=""
       id="path-effect6"
       is_visible="true"
       lpeversion="1"
       inverse="true"
       flatten="false"
       hide_clip="false" /><clipPath
       clipPathUnits="userSpaceOnUse"
       id="clipath_lpe_path-effect8"><path
         id="path8"
         style="display:block;fill:none;stroke:#000000;stroke-width:10;stroke-linejoin:round"
         d="m 380.78382,289.45445 c 1e-5,29.17825 -24.80466,56.14006 -65.0703,70.72918 -40.26564,14.58912 -89.87496,14.58912 -130.1406,0 -40.26564,-14.58912 -65.0703,-41.55093 -65.0703,-70.72918 v -40.48622 c 0,-45.10566 58.26593,-81.67102 130.1406,-81.67102 71.87466,0 130.14059,36.56536 130.14059,81.67102 z"
         sodipodi:nodetypes="sssscscs" /></clipPath><clipPath
       clipPathUnits="userSpaceOnUse"
       id="clipPath42"><ellipse
         style="display:none;fill:none;stroke:#000000;stroke-width:13.5087;stroke-linejoin:round;stroke-dasharray:none;stroke-opacity:1"
         id="ellipse43"
         cx="250.64322"
         cy="132.4245"
         rx="130.14061"
         ry="81.671021"
         d="M 380.78383,132.4245 A 130.14061,81.671021 0 0 1 250.64322,214.09552 130.14061,81.671021 0 0 1 120.50261,132.4245 130.14061,81.671021 0 0 1 250.64322,50.753479 130.14061,81.671021 0 0 1 380.78383,132.4245 Z" /><path
         id="lpe_path-effect43"
         style="fill:none;stroke:#000000;stroke-width:13.5087;stroke-linejoin:round;stroke-dasharray:none;stroke-opacity:1"
         class="powerclip"
         d="m 115.50262,125.54852 h 270.2812 v 174.03321 h -270.2812 z m 265.28121,6.87598 A 130.14061,81.671021 0 0 0 250.64322,50.753479 130.14061,81.671021 0 0 0 120.50261,132.4245 130.14061,81.671021 0 0 0 250.64322,214.09552 130.14061,81.671021 0 0 0 380.78383,132.4245 Z" /></clipPath><clipPath
       clipPathUnits="userSpaceOnUse"
       id="clipPath55"><path
         style="fill:none;stroke:#000000;stroke-width:1px;stroke-linecap:butt;stroke-linejoin:miter;stroke-opacity:1"
         d="m 367.49216,34.211532 c -1.70325,-0.348902 -3.46833,-0.609583 -5.29649,-0.778285 -16.14139,-1.489517 -31.19696,-1.491456 -44.99905,-0.343878 -37.39146,-16.870642 -61.1677,-27.1639791 -79.36949,-23.043153 -18.38556,4.162433 -30.8346,27.118719 -37.80734,51.960853 -4.55341,16.222681 -13.30713,45.010601 -20.05942,67.081181 l -0.43788,-0.0829 c -35.1635,-5.90756 -60.04204,-12.52289 -66.91724,3.93464 -6.87522,16.45751 9.7749,28.21808 48.66766,38.94614 38.89274,10.72806 101.60455,26.94802 172.83114,36.77024 71.22658,9.82221 94.0949,11.79409 101.68013,11.34273 7.58524,-0.45136 26.28433,-9.9207 23.87685,-22.4395 -2.4075,-12.5188 -15.44571,-14.12225 -26.11719,-17.46299 -10.67146,-3.34074 -32.7216,-8.86575 -32.7216,-8.86575 l -1.25184,-0.23856 c 2.6696,-11.39587 7.83873,-10.2144 13.69357,-8.16127 2.24895,-5.70495 -0.59403,-20.36256 -12.00318,-20.81502 l -2.95566,-0.68151 c 0,0 8.24449,-35.7514 7.26372,-57.137456 C 404.649,64.147535 393.04112,39.445017 367.49216,34.211532 Z"
         id="path55"
         sodipodi:nodetypes="sscssccssssssccccccs" /></clipPath><linearGradient
       inkscape:collect="always"
       xlink:href="#linearGradient29"
       id="linearGradient25"
       x1="175.08321"
       y1="215.96729"
       x2="387.53818"
       y2="215.96729"
       gradientUnits="userSpaceOnUse"
       spreadMethod="reflect" /><linearGradient
       inkscape:collect="always"
       xlink:href="#linearGradient29"
       id="linearGradient26"
       x1="174.61855"
       y1="345.78006"
       x2="387.53818"
       y2="345.78006"
       gradientUnits="userSpaceOnUse"
       spreadMethod="reflect" /><radialGradient
       inkscape:collect="always"
       xlink:href="#linearGradient34"
       id="radialGradient36"
       cx="213.99274"
       cy="286.06079"
       fx="188.61168"
       fy="282.65057"
       r="126.10201"
       gradientTransform="matrix(1.0288552,0,0,1.0624216,1.9363115,-53.79332)"
       gradientUnits="userSpaceOnUse" /><linearGradient
       inkscape:collect="always"
       xlink:href="#linearGradient36"
       id="linearGradient38"
       x1="185.37508"
       y1="128.02226"
       x2="233.77057"
       y2="162.06551"
       gradientUnits="userSpaceOnUse" /><clipPath
       clipPathUnits="userSpaceOnUse"
       id="clipath_lpe_path-effect39"><ellipse
         style="display:none;fill:none;stroke:#000000;stroke-width:13.5087;stroke-linejoin:round;stroke-dasharray:none;stroke-opacity:1"
         id="ellipse39"
         cx="250.64322"
         cy="132.4245"
         rx="130.14061"
         ry="81.671021"
         d="M 380.78383,132.4245 A 130.14061,81.671021 0 0 1 250.64322,214.09552 130.14061,81.671021 0 0 1 120.50261,132.4245 130.14061,81.671021 0 0 1 250.64322,50.753479 130.14061,81.671021 0 0 1 380.78383,132.4245 Z" /><path
         id="lpe_path-effect39"
         style="fill:none;stroke:#000000;stroke-width:13.5087;stroke-linejoin:round;stroke-dasharray:none;stroke-opacity:1"
         class="powerclip"
         d="m 108.74827,125.54852 h 283.7899 v 180.83754 h -283.7899 z m 272.03556,6.87598 A 130.14061,81.671021 0 0 0 250.64322,50.753479 130.14061,81.671021 0 0 0 120.50261,132.4245 130.14061,81.671021 0 0 0 250.64322,214.09552 130.14061,81.671021 0 0 0 380.78383,132.4245 Z" /></clipPath><clipPath
       clipPathUnits="userSpaceOnUse"
       id="clipath_lpe_path-effect44"><ellipse
         style="display:none;fill:none;stroke:#000000;stroke-width:13.5087;stroke-linejoin:round;stroke-dasharray:none;stroke-opacity:1"
         id="ellipse47"
         cx="250.64322"
         cy="132.4245"
         rx="130.14061"
         ry="81.671021" /></clipPath><clipPath
       clipPathUnits="userSpaceOnUse"
       id="clipath_lpe_path-effect47"><ellipse
         style="display:none;fill:none;stroke:#000000;stroke-width:13.5087;stroke-linejoin:round;stroke-dasharray:none;stroke-opacity:1"
         id="ellipse48"
         cx="250.64322"
         cy="132.4245"
         rx="130.14061"
         ry="81.671021" /></clipPath><radialGradient
       inkscape:collect="always"
       xlink:href="#linearGradient34"
       id="radialGradient49"
       gradientUnits="userSpaceOnUse"
       gradientTransform="matrix(1.0336811,0,0,1.0624216,0.70449792,23.874055)"
       cx="213.99274"
       cy="286.06079"
       fx="188.61168"
       fy="282.65057"
       r="126.10201" /><linearGradient
       inkscape:collect="always"
       xlink:href="#linearGradient36"
       id="linearGradient52"
       x1="182.08942"
       y1="258.54425"
       x2="233.44202"
       y2="291.16904"
       gradientUnits="userSpaceOnUse" /><clipPath
       clipPathUnits="userSpaceOnUse"
       id="clipPath52"><path
         style="stroke-width:0.888315;stroke-linejoin:round"
         d="m 264.55392,230.6561 c -34.2223,0 -65.29467,7.99763 -88.23801,21.33811 -22.94334,13.34047 -38.09696,32.50044 -38.09696,54.27129 v 34.61827 c 0,28.2223 25.45925,52.916 64.16064,65.90813 38.70138,12.99214 85.64726,12.99214 124.34865,0 38.70138,-12.99213 64.16245,-37.68583 64.16244,-65.90813 V 306.2655 c 0,-21.77085 -15.15362,-40.93082 -38.09696,-54.27129 -22.94334,-13.34048 -54.01751,-21.33811 -88.2398,-21.33811 z"
         id="path52" /></clipPath><linearGradient
       inkscape:collect="always"
       xlink:href="#linearGradient29"
       id="linearGradient56"
       gradientUnits="userSpaceOnUse"
       x1="174.61855"
       y1="345.78006"
       x2="387.53818"
       y2="345.78006"
       spreadMethod="reflect" /><linearGradient
       inkscape:collect="always"
       xlink:href="#linearGradient36"
       id="linearGradient57"
       gradientUnits="userSpaceOnUse"
       x1="182.08942"
       y1="258.54425"
       x2="233.44202"
       y2="291.16904" /><radialGradient
       inkscape:collect="always"
       xlink:href="#linearGradient34"
       id="radialGradient57"
       gradientUnits="userSpaceOnUse"
       gradientTransform="matrix(1.0336811,0,0,1.0624216,0.70449792,23.874055)"
       cx="213.99274"
       cy="286.06079"
       fx="188.61168"
       fy="282.65057"
       r="126.10201" /><clipPath
       clipPathUnits="userSpaceOnUse"
       id="clipath_lpe_path-effect39-5"><ellipse
         style="display:none;fill:none;stroke:#000000;stroke-width:13.5087;stroke-linejoin:round;stroke-dasharray:none;stroke-opacity:1"
         id="ellipse39-6"
         cx="250.64322"
         cy="132.4245"
         rx="130.14061"
         ry="81.671021" /><path
         id="lpe_path-effect39-2"
         style="fill:none;stroke:#000000;stroke-width:13.5087;stroke-linejoin:round;stroke-dasharray:none;stroke-opacity:1"
         class="powerclip"
         d="m 108.74827,125.54852 h 283.7899 v 180.83754 h -283.7899 z m 272.03556,6.87598 A 130.14061,81.671021 0 0 0 250.64322,50.753479 130.14061,81.671021 0 0 0 120.50261,132.4245 130.14061,81.671021 0 0 0 250.64322,214.09552 130.14061,81.671021 0 0 0 380.78383,132.4245 Z" /></clipPath><inkscape:path-effect
       effect="powerclip"
       message=""
       id="path-effect39-9"
       is_visible="true"
       lpeversion="1"
       inverse="true"
       flatten="false"
       hide_clip="false" /><clipPath
       clipPathUnits="userSpaceOnUse"
       id="clipath_lpe_path-effect39-9"><path
         id="lpe_path-effect39-9"
         style="fill:none;stroke:#000000;stroke-width:13.5087;stroke-linejoin:round;stroke-dasharray:none;stroke-opacity:1"
         class="powerclip"
         d="m 108.74827,125.54852 h 283.7899 v 180.83754 h -283.7899 z m 272.03556,6.87598 A 130.14061,81.671021 0 0 0 250.64322,50.753479 130.14061,81.671021 0 0 0 120.50261,132.4245 130.14061,81.671021 0 0 0 250.64322,214.09552 130.14061,81.671021 0 0 0 380.78383,132.4245 Z" /></clipPath><clipPath
       clipPathUnits="userSpaceOnUse"
       id="clipPath60"><path
         style="fill:none;fill-opacity:0.181675;stroke:#000000;stroke-linejoin:round;stroke-opacity:1"
         d="m 264.55078,124.5625 c -33.52599,0.0244 -64.04351,7.75176 -86.81055,20.70508 -22.65918,12.89195 -38.07326,31.42735 -39.06445,52.98437 a 6.0006,6.0006 0 0 0 -0.22266,0.53907 v 70.42578 c 0,6.36551 1.39027,12.58742 3.83008,18.51367 -2.42033,5.88207 -3.83008,12.10231 -3.83008,18.53515 v 34.61915 c 0,6.36506 1.39086,12.58657 3.83008,18.51171 -2.42083,5.88309 -3.83008,12.10384 -3.83008,18.53711 v 34.61719 c 0,28.61922 25.57132,53.21822 64.14063,66.16602 38.56922,12.94776 85.35266,12.94776 123.92187,0 38.56931,-12.9478 64.14064,-37.5468 64.14063,-66.16602 v -34.61719 c 0,-6.43327 -1.40924,-12.65402 -3.83008,-18.53711 2.43923,-5.92515 3.83008,-12.14665 3.83008,-18.51171 v -34.61915 c 0,-6.43284 -1.40974,-12.65308 -3.83008,-18.53515 2.43981,-5.92625 3.83008,-12.14816 3.83008,-18.51367 v -70.42578 a 6.0006,6.0006 0 0 0 -0.11914,-0.28711 l 0.0527,0.0508 c -0.85819,-21.70378 -16.35519,-40.35825 -39.14648,-53.3125 -22.79129,-12.95425 -53.33892,-20.67462 -86.88867,-20.67969 a 6.0006,6.0006 0 0 0 -0.004,0 z"
         id="path61" /></clipPath></defs><g
     inkscape:label="Layer 1"
     inkscape:groupmode="layer"
     id="layer1"><g
       id="g2"><g
         id="g58"
         transform="translate(5,5)"><path
           style="display:block;fill:#ffffff;fill-opacity:1;stroke-linecap:round;stroke-linejoin:round"
           d="m 301.68164,243.18164 c -21.32246,1.64229 -32.53524,10.44253 -42.41602,18.59766 -3.6122,2.98135 -9.45201,8.58889 -17.52929,16.39257 -8.07728,7.80369 -17.87386,17.40672 -27.42578,26.82618 -9.55192,9.41946 -18.85498,18.65103 -25.92188,25.69531 -3.53345,3.52214 -6.5073,6.49671 -8.68164,8.68164 -2.17434,2.18493 -2.91707,2.87216 -4.16016,4.23828 -2.24801,2.47058 -3.27919,4.74853 -3.92968,6.84375 -0.69807,0.46004 -1.42249,0.88073 -2.04492,1.44922 -5.76693,5.2671 -20.62379,20.76341 -35.30079,36.07227 -9.04778,9.4373 -12.19167,12.76221 -17.52148,18.36328 -6.66138,-11.12066 -15.0625,-25.15039 -15.0625,-25.15039 a 12.0012,12.0012 0 0 0 -0.49219,-0.35743 c -0.0809,-0.13247 0.0375,0.0468 -0.10547,-0.17578 -6.75372,-10.50937 -19.110907,-14.33518 -30.820309,-13.95312 -11.709401,0.38205 -24.042678,4.52802 -35.615234,11.97656 -11.572447,7.44847 -20.457063,16.95918 -25.6601564,27.45898 -5.2030935,10.49981 -6.8538617,23.32571 -0.099609,33.83594 0.4405054,0.68545 0.8006968,1.16516 1.0546875,1.50586 a 12.0012,12.0012 0 0 0 0.029297,0.0762 c 25.3434089,33.97201 45.8548589,51.13193 60.5527349,58.75977 16.264272,8.44075 36.049969,5.23533 51.568359,-6.83789 5.37123,-4.1788 9.63511,-8.91193 12.63281,-14.125 l -1.45312,2.00976 c 1.95891,-2.19365 20.08814,-22.49575 38.44726,-43.13086 18.35913,-20.6351 35.97849,-40.39896 40.10938,-45.45898 1.04581,-1.28105 1.78442,-2.62885 2.3457,-3.99023 0.44824,-0.40096 0.90383,-0.8052 1.28516,-1.18555 2.19571,-2.19009 3.72613,-4.25918 5.16406,-6.10352 2.40193,-3.08079 9.56052,-13.00345 23.23047,-30.04882 13.65888,-17.03159 33.01584,-40.14593 57.15234,-66.20508 3.42011,-3.64266 3.61,-6.38445 3.98047,-8.28125 0.37047,-1.8968 0.48011,-3.30728 0.61328,-4.46094 0.26635,-2.30732 1.23695,-3.28032 -0.30078,-1.24023 2.53791,-3.36709 6.72656,-8.69141 6.72656,-8.69141 a 12.0012,12.0012 0 0 0 2.53125,-6.45313 12.0012,12.0012 0 0 0 -12.88281,-12.93359 z"
           id="path6" /><path
           style="display:block;fill:#ffffff;fill-opacity:1;stroke-linecap:round;stroke-linejoin:round"
           d="m 244.56445,-0.4296875 c 20.16505,-1.03019 42.55597,9.4880942 73.83008,23.6425785 a 2.50025,2.50025 0 0 0 1.20508,0.216796 c 13.5019,-0.945597 28.00292,-0.882254 43.46875,0.544922 2.16326,0.199624 4.27484,0.508687 6.33008,0.929688 15.34879,3.14407 26.96412,12.488872 34.27734,23.482422 7.34541,11.041938 10.84629,23.680783 11.38281,35.375 0.74644,16.276351 -2.73574,36.678691 -5.21484,48.917971 a 2.50025,2.50025 0 0 0 1.19141,2.65625 c 4.80398,2.80209 8.40587,7.37427 10.11132,11.44922 2.62801,6.2792 3.40003,11.46138 1.44922,17.71679 a 2.50025,2.50025 0 0 0 1.72461,3.1543 c 4.29974,1.17929 8.8252,2.36156 12.0625,3.375 4.79049,1.49968 10.96653,2.64348 17.47852,5.81445 6.23608,3.03662 13.37347,9.79174 15.1289,18.91992 2.1581,11.22199 -5.06622,20.0758 -11.82421,25.14063 -6.97946,5.2308 -13.20634,8.12323 -20.81836,8.57617 -10.55195,0.62789 -32.20182,-1.57827 -103.54102,-11.41601 -71.88137,-9.91251 -135.01017,-26.24996 -174.06055,-37.02149 -19.99647,-5.51577 -34.59993,-11.06406 -44.79492,-18.97851 -5.06822,-3.9345 -9.1399,-8.69053 -11.11719,-14.58789 -1.94895,-5.81291 -1.3623,-12.53239 1.00586,-18.20118 2.53928,-6.07836 7.88502,-11.14767 13.52735,-13.49609 5.82003,-2.42238 11.85434,-2.8816 18.36718,-2.69141 10.31857,0.30133 22.29936,2.47916 35.34571,4.80469 a 2.50025,2.50025 0 0 0 2.83008,-1.73242 c 6.11878,-20.066836 13.15424,-43.153388 16.96289,-56.722657 3.68087,-13.11402 8.76956,-25.860127 15.88086,-36.460937 7.10443,-10.590574 16.54539,-19.38484 28.97656,-22.19921913 2.93142,-0.66366248 5.8628,-1.05719274 8.83398,-1.20898437 z"
           id="path62" /><path
           style="fill:#ffffff;stroke-linejoin:round"
           d="m 250.63086,20.449219 c -37.94711,0.02981 -72.64324,9.38894 -99.08984,25.628906 -26.19651,16.086385 -45.0823,40.046128 -46.49024,68.484375 -0.0915,0.31095 -0.17977,0.62342 -0.25195,0.93945 a 2.2516778,2.2516778 0 0 0 -0.0566,0.50196 v 1.87695 80.48633 c 0,7.44219 1.35477,14.70889 3.66992,21.65039 -2.30015,6.89954 -3.66992,14.17113 -3.66992,21.67969 v 40.48632 c 0,7.44216 1.35467,14.70874 3.66992,21.65039 -2.30004,6.89919 -3.66992,14.16918 -3.66992,21.67774 v 40.48633 c 0,38.07162 31.2878,69.54199 75.46093,85.54687 44.14705,15.99544 96.73186,15.99544 140.87891,0 44.17312,-16.00487 75.4629,-47.47516 75.46289,-85.54687 v -40.48633 c 0,-7.50856 -1.36988,-14.77855 -3.66992,-21.67774 2.31522,-6.94163 3.66992,-14.20827 3.66992,-21.65039 v -40.48632 c 0,-7.50856 -1.36977,-14.78015 -3.66992,-21.67969 2.31515,-6.9415 3.66992,-14.2082 3.66992,-21.65039 v -80.48633 -1.87695 a 2.2516778,2.2516778 0 0 0 -0.0664,-0.53907 c -0.005,-0.0202 -0.0106,-0.0403 -0.0156,-0.0605 C 395.39654,86.571344 376.30762,62.290581 349.82227,46.042969 323.34847,29.802436 288.62035,20.455413 250.64648,20.449219 h -0.0137 a 2.2516778,2.2516778 0 0 0 -0.002,0 z"
           transform="matrix(0.9228635,0,0,0.85506059,33.245027,99.600633)"
           id="path10" /></g><g
         id="g1"><g
           id="g46"
           clip-path="none"
           transform="translate(5,5)"><g
             id="g56"
             transform="translate(0,71.667374)"><path
               id="path53"
               style="fill:url(#linearGradient56);fill-opacity:1;stroke:none;stroke-width:13.5087;stroke-linejoin:round;stroke-dasharray:none"
               d="m 380.78382,365.99819 c 1e-5,29.17825 -24.80466,56.14006 -65.0703,70.72918 -40.26564,14.58912 -89.87496,14.58912 -130.1406,0 -40.26564,-14.58912 -65.0703,-41.55093 -65.0703,-70.72918 v -40.48622 c 0,-45.10566 58.26593,-81.67102 130.1406,-81.67102 71.87466,0 130.14059,36.56536 130.14059,81.67102 z"
               sodipodi:nodetypes="sssscscs"
               clip-path="none"
               transform="matrix(0.9228635,0,0,0.85506059,33.245027,27.933259)" /><path
               id="path56"
               style="fill:none;fill-opacity:1;stroke:url(#linearGradient57);stroke-width:13.5087;stroke-linejoin:round;stroke-dasharray:none"
               d="m 380.78382,365.99819 c 1e-5,29.17825 -24.80466,56.14006 -65.0703,70.72918 -40.26564,14.58912 -89.87496,14.58912 -130.1406,0 -40.26564,-14.58912 -65.0703,-41.55093 -65.0703,-70.72918 v -40.48622 c 0,-45.10566 58.26593,-81.67102 130.1406,-81.67102 71.87466,0 130.14059,36.56536 130.14059,81.67102 z"
               sodipodi:nodetypes="sssscscs"
               clip-path="none"
               transform="matrix(0.9228635,0,0,0.85506059,33.245027,27.933259)" /><ellipse
               style="fill:#b4c8d5;fill-opacity:1;stroke:url(#radialGradient57);stroke-width:12;stroke-linejoin:round;stroke-dasharray:none;stroke-opacity:1"
               id="ellipse56"
               cx="264.5545"
               cy="278.06329"
               rx="120.66536"
               ry="69.833672"
               clip-path="url(#clipPath52)" /></g><g
             id="g52"><path
               id="path43"
               style="fill:url(#linearGradient26);fill-opacity:1;stroke:none;stroke-width:13.5087;stroke-linejoin:round;stroke-dasharray:none"
               d="m 380.78382,365.99819 c 1e-5,29.17825 -24.80466,56.14006 -65.0703,70.72918 -40.26564,14.58912 -89.87496,14.58912 -130.1406,0 -40.26564,-14.58912 -65.0703,-41.55093 -65.0703,-70.72918 v -40.48622 c 0,-45.10566 58.26593,-81.67102 130.1406,-81.67102 71.87466,0 130.14059,36.56536 130.14059,81.67102 z"
               sodipodi:nodetypes="sssscscs"
               clip-path="none"
               transform="matrix(0.9228635,0,0,0.85506059,33.245027,27.933259)" /><path
               id="path51"
               style="fill:none;fill-opacity:1;stroke:url(#linearGradient52);stroke-width:13.5087;stroke-linejoin:round;stroke-dasharray:none"
               d="m 380.78382,365.99819 c 1e-5,29.17825 -24.80466,56.14006 -65.0703,70.72918 -40.26564,14.58912 -89.87496,14.58912 -130.1406,0 -40.26564,-14.58912 -65.0703,-41.55093 -65.0703,-70.72918 v -40.48622 c 0,-45.10566 58.26593,-81.67102 130.1406,-81.67102 71.87466,0 130.14059,36.56536 130.14059,81.67102 z"
               sodipodi:nodetypes="sssscscs"
               clip-path="none"
               transform="matrix(0.9228635,0,0,0.85506059,33.245027,27.933259)" /><ellipse
               style="fill:#b4c8d5;fill-opacity:1;stroke:url(#radialGradient49);stroke-width:12;stroke-linejoin:round;stroke-dasharray:none;stroke-opacity:1"
               id="ellipse41"
               cx="264.5545"
               cy="278.06329"
               rx="120.66536"
               ry="69.833672"
               clip-path="url(#clipPath52)" /></g><g
             id="g39"><path
               id="ellipse1"
               style="fill:url(#linearGradient25);stroke:none;stroke-width:13.5087;stroke-linejoin:round;stroke-dasharray:none;stroke-opacity:1"
               d="m 120.50262,130.54852 v 82.36219 c 0,29.17825 24.80466,56.14006 65.0703,70.72918 40.26564,14.58912 89.87496,14.58912 130.1406,0 40.26564,-14.58912 65.0703,-41.55093 65.0703,-70.72918 v -82.36219"
               sodipodi:nodetypes="cssssc"
               clip-path="url(#clipPath42)"
               inkscape:path-effect="#path-effect43"
               inkscape:original-d="m 120.50262,130.54852 v 82.36219 c 0,29.17825 24.80466,56.14006 65.0703,70.72918 40.26564,14.58912 89.87496,14.58912 130.1406,0 40.26564,-14.58912 65.0703,-41.55093 65.0703,-70.72918 v -82.36219"
               transform="matrix(0.9228635,0,0,0.85506059,33.245027,87.164955)" /><path
               id="path38"
               style="fill:none;stroke:url(#linearGradient38);stroke-width:13.5087;stroke-linejoin:round;stroke-dasharray:none;stroke-opacity:1"
               d="m 120.50262,130.54852 v 82.36219 c 0,29.17825 24.80466,56.14006 65.0703,70.72918 40.26564,14.58912 89.87496,14.58912 130.1406,0 40.26564,-14.58912 65.0703,-41.55093 65.0703,-70.72918 v -82.36219"
               sodipodi:nodetypes="cssssc"
               clip-path="url(#clipath_lpe_path-effect39)"
               inkscape:path-effect="#path-effect39"
               inkscape:original-d="m 120.50262,130.54852 v 82.36219 c 0,29.17825 24.80466,56.14006 65.0703,70.72918 40.26564,14.58912 89.87496,14.58912 130.1406,0 40.26564,-14.58912 65.0703,-41.55093 65.0703,-70.72918 v -82.36219"
               transform="matrix(0.9228635,0,0,0.85506059,33.245027,87.164955)" /><ellipse
               style="fill:#b4c8d5;fill-opacity:1;stroke:url(#radialGradient36);stroke-width:12;stroke-linejoin:round;stroke-dasharray:none;stroke-opacity:1"
               id="path1"
               cx="264.5545"
               cy="200.39592"
               rx="120.10201"
               ry="69.833672" /></g></g><path
           style="fill:#4c555b;fill-opacity:0.505529;stroke:none;stroke-width:1px;stroke-linecap:butt;stroke-linejoin:miter;stroke-opacity:1"
           d="m 220.41166,493.56775 c 0,0 12.8645,-66.89537 13.29331,-69.46826 0.42882,-2.5729 21.86964,-9.43397 21.86964,-9.43397 l -12.43567,-7.28988 c -7.28988,-7.28988 -3.43054,-13.29331 -2.5729,-17.15266 0.85763,-3.85934 8.14751,-33.8765 9.00514,-36.4494 0.85764,-2.57289 27.44426,-10.72041 27.44426,-10.72041 0,0 -15.4374,-3.85934 -18.01029,-6.43224 -2.5729,-2.5729 3.00171,-10.2916 8.14751,-18.0103 5.1458,-7.71869 25.30017,-42.02401 25.30017,-42.02401 l -43.73928,36.02058 -31.73242,51.8868 c 0,0 -7.71869,25.30017 -8.57633,28.7307 -0.85763,3.43053 4.71698,12.00686 9.00515,16.29503 -4.71698,-1.28645 -13.29331,2.14408 -14.15094,4.28816 -0.85764,2.14408 -29.15952,66.03774 -29.15952,66.03774 z M 136.36364,166.80961 c 3.85934,20.15437 54.45969,51.02916 113.63636,58.74785 59.17667,7.7187 96.4837,6.86106 107.20412,7.28988 10.72041,0.42882 42.02401,39.45112 42.02401,39.45112 L 423.24185,116.20926 160.37736,99.056604 Z"
           id="path60"
           clip-path="url(#clipPath60)"
           transform="translate(5,5)" /><g
           id="g57"
           transform="translate(5,5)"><path
             id="path40"
             style="display:block;fill:#6c6c6c;fill-opacity:1;stroke:none;stroke-width:1px;stroke-linecap:butt;stroke-linejoin:miter;stroke-opacity:1"
             d="m 265.31641,91.875 -77.32032,13.64453 -10.00586,32.14258 -11.2207,18.79883 236.20899,47 -2.66797,-32.32813 -0.74024,-0.14062 c 2.6696,-11.39587 7.83852,-10.21524 13.69336,-8.16211 2.24894,-5.70494 -0.5928,-20.36199 -12.00195,-20.81446 l -2.95703,-0.68164 c 0,0 0.15849,-0.73968 0.17773,-0.82421 l -3.08398,-0.11915 z" /><path
             id="path29"
             style="fill:#252525;fill-opacity:1;stroke-linecap:round"
             d="m 188.56641,-23.951172 c -8.04946,3.009829 -12.71295,87.156919 -3.15235,119.3125 -0.17617,0.620316 -1.63281,5.785152 -1.63281,5.785152 0.009,0.11894 0.0231,0.23751 0.041,0.35547 -0.48338,1.42032 -0.30342,2.98264 0.49023,4.25586 2.97443,4.25952 7.66507,6.49146 13.27734,8.58203 5.61228,2.09057 12.31235,3.77767 19.47852,5.27149 14.33234,2.98764 30.54589,5.1615 42.31055,7.26172 24.03257,4.29028 54.18156,8.74783 68.16015,11.04492 13.22163,2.1727 28.61536,6.85092 29.38672,7.08594 2.922,1.40472 5.71839,2.86347 8.24024,4.43554 -0.23743,-3.60339 1.00539,-6.05409 0.64257,-8.93554 13.52201,5.47711 31.0346,-0.99779 43.12577,0.54546 12.09117,1.54325 39.3215,-12.0982 39.3215,-12.0982 -3.53712,-5.71952 -8.74219,-136.8378887 -8.74219,-136.8378888 L 338.55859,28.609375 c -8.09397,0.724869 -16.75908,3.769741 -21.61221,4.541227 -32.80524,4.361643 -57.78475,14.701673 -79.35068,-4.349821 10.42573,5.101253 26.37337,5.658674 39.27149,2.78711 9.96799,-2.21922 18.66522,-1.95789 22.57422,-3.095703 1.03881,-0.283432 2.84869,-1.252782 3.29494,-2.681638 1.07558,-2.543531 -0.11458,-5.477384 -2.65821,-6.552735 -18.33951,-7.755835 -33.36965,-14.3920777 -48.3164,-15.2832026 -0.4115,-0.024534 -0.82293,-0.017478 -1.23438,-0.033203 L 190.37695,-23.261719 c -0.61848,-0.697549 -1.22336,-0.909011 -1.81054,-0.689453 z m -83.875,131.212892 1.23242,57.83008 79.83594,18.48632 c 22.51364,5.87883 49.1374,12.32597 79.41601,18.38672 l 163.0332,37.75 20.31055,-18.68164 c 2.00527,-1.07095 4.00487,-2.26941 5.94922,-3.72656 3.22226,-2.41485 6.29648,-5.59538 8.26367,-9.3457 L 480.5918,191.5332 c 0,0 -10.51895,-3.2867 -23.2793,-7.0957 -1.6964,-1.43553 -3.53737,-2.62917 -5.42188,-3.54688 -5.71134,-2.78128 -11.85407,-4.00131 -16.85351,-5.5664 -10.92524,-3.42018 -28.83519,-3.64706 -28.83519,-3.64706 -3.55235,-0.94042 -5.62548,-1.65558 -6.57649,-0.65936 -0.70747,2.82885 -1.31281,7.10067 -1.15473,10.74782 -17.89601,-2.39066 -36.53479,-4.49926 -50.7207,-4.1582 -30.92995,0.74361 -102.90605,-11.59377 -151.05078,-21.91992 -7.38696,-1.58437 -13.96299,-3.1504 -20.1543,-4.69922 2.0165,-7.391 4.50007,-16.46125 5.25849,-20.09663 -1.09936,-1.28216 -3.35614,-3.57277 -7.31081,-4.23812 -16.61646,-2.79161 -26.77388,-8.37049 -38.2133,-8.96603 -14.65002,-4.28316 -28.1704,-8.53693 -31.58789,-10.42578 z"
             clip-path="url(#clipPath55)"
             sodipodi:nodetypes="sccccsssscccscccccscccsccsccccccscccsscccssccccc" /></g><g
           id="g3"
           transform="translate(5,5)"><path
             style="fill:#ffffff;fill-opacity:1;stroke:none;stroke-width:1px;stroke-linecap:butt;stroke-linejoin:miter;stroke-opacity:1"
             d="m 184.8199,358.49057 12.00686,9.86277 77.18696,-88.765 -7.28988,-3.85935 z"
             id="path5" /><path
             style="display:block;fill:#b37600;fill-opacity:1;stroke:none;stroke-width:1px;stroke-linecap:butt;stroke-linejoin:miter;stroke-opacity:1"
             d="m 182.34257,359.06678 0.18291,0.18533 c -1.83484,-0.16204 -3.50702,0.27669 -4.86152,1.5138 -8.7393,7.98186 -62.83872,64.97574 -63.11086,65.26244 -9.0567,-15.21482 -23.15003,-38.65398 -23.15003,-38.65398 l -0.19975,0.12996 c -0.0718,-0.11854 -0.13417,-0.24156 -0.20938,-0.3586 -7.646172,-11.8981 -29.962058,-11.17057 -49.845129,1.62694 -19.88307,12.79751 -29.804624,32.81833 -22.158468,44.71645 0.195777,0.30464 0.408607,0.59516 0.623336,0.88326 l -0.01688,0.01 c 24.611591,32.99103 44.447184,49.04931 56.461138,55.28426 12.013953,6.23494 25.873813,4.29973 38.673223,-5.65814 4.35423,-3.38757 7.47286,-6.93967 9.59792,-10.6352 3.91551,-4.38471 72.50219,-81.19405 78.21047,-88.18625 0.94761,-1.16076 1.1588,-2.7961 0.8279,-4.68103 -4.91416,-10.94689 -12.25748,-17.48527 -21.02488,-21.43924 z"
             id="path3"
             sodipodi:nodetypes="ccsccccssccsscscc" /><path
             style="fill:#000000;fill-opacity:1;stroke:none;stroke-width:8;stroke-linecap:round;stroke-linejoin:round;stroke-dasharray:none;stroke-opacity:1"
             d="m 74.495308,397.76464 c 4.086763,6.35934 -2.826439,14.70599 -13.597468,21.63864 -10.771004,6.93262 -21.321033,9.826 -25.407771,3.46666 -4.086739,-6.35934 3.013281,-14.33234 13.784286,-21.26497 10.770979,-6.93262 21.13419,-10.19964 25.220953,-3.84033 z"
             id="path21" /><path
             id="path2"
             clip-path="none"
             style="fill:#744c00;fill-opacity:1;stroke:none;stroke-width:1px;stroke-linecap:butt;stroke-linejoin:miter;stroke-opacity:1"
             d="m 196.38867,369.14844 -78.08985,81.45117 c 0,0 -24.660716,-31.75853 -28.023434,-39.97852 -21.246902,28.71204 -45.786271,34.65067 -66.531249,29.10157 22.666282,29.27532 40.992381,44.06748 52.314451,49.94336 12.013954,6.23494 25.872472,4.29966 38.671882,-5.6582 4.35423,-3.38757 7.47259,-6.93924 9.59765,-10.63477 3.91551,-4.38471 72.50266,-81.19335 78.21094,-88.18555 0.94761,-1.16076 1.15903,-2.79671 0.82813,-4.68164 -1.85698,-4.48959 -4.12174,-8.36751 -6.97852,-11.35742 z"
             sodipodi:nodetypes="ccccsscscc" /><path
             id="path11"
             style="fill:none;stroke:#000000;stroke-width:8;stroke-linecap:round;stroke-linejoin:round;stroke-dasharray:none;stroke-opacity:1"
             d="m 203.65115,380.79446 c 1.76333,0.70283 4.63937,-2.98607 7.51541,-6.67499 2.87604,-3.6889 32.31183,-44.4255 81.10054,-97.09335 1.86885,-1.99047 0.76703,-9.41996 3.4575,-12.98941 2.69047,-3.56947 6.87864,-8.89051 6.87864,-8.89051 -18.99703,1.46319 -25.58458,7.54095 -35.69802,15.88811 -10.11345,8.3472 -80.17629,78.12086 -82.48252,80.65537 -2.30623,2.53454 -2.07989,7.37708 -2.07989,7.37708 M 19.595947,434.38082 c 24.611591,32.99104 44.448071,49.05037 56.462025,55.28532 12.013954,6.23495 25.874088,4.30031 38.673498,-5.65756 12.7994,-9.95787 15.13576,-21.30749 11.90093,-33.68906 m -8.60128,-18.47099 C 109.69166,417.75856 91.403973,387.3748 91.403973,387.3748 m 30.814797,88.36377 c 0,0 74.44821,-83.36032 80.31966,-90.55239 5.87141,-7.19208 -16.1137,-32.42224 -24.87502,-24.42028 -8.7613,8.00195 -63.19657,65.35429 -63.19657,65.35429 M 90.994195,387.14535 c 7.646169,11.89812 -2.273833,31.91788 -22.156916,44.7154 -19.88307,12.79749 -42.199904,13.52659 -49.846073,1.62849 -7.646157,-11.89811 2.27382,-31.91786 22.156891,-44.71538 19.88307,-12.7975 42.199929,-13.52661 49.846098,-1.62851"
             sodipodi:nodetypes="cscscssccssccccssccsssc" /><path
             id="path22"
             clip-path="none"
             style="fill:#000000;fill-opacity:1;stroke:none;stroke-width:1px;stroke-linecap:butt;stroke-linejoin:miter;stroke-opacity:1"
             d="m 302.60351,255.14648 c -18.99703,1.46319 -25.58576,7.54152 -35.69921,15.88868 -10.11345,8.3472 -80.17619,78.11978 -82.48243,80.65429 -1.71519,1.885 -2.02587,5.03667 -2.07421,6.5332 l 5.07421,1.21094 75.09962,-71.36524 -68.37501,76.22267 2.24219,4.85742 c 2.64239,2.93202 5.04891,6.5009 6.97852,11.35742 l 0.28515,0.28906 c 1.76333,0.70282 4.63958,-2.98686 7.51563,-6.67578 2.87603,-3.6889 32.30895,-44.42395 81.09766,-97.0918 1.86884,-1.99047 0.7685,-9.42078 3.45897,-12.99023 2.69047,-3.56948 6.87891,-8.89063 6.87891,-8.89063 z"
             sodipodi:nodetypes="csscccccccscsc" /></g></g></g></g></svg>
